<?xml version="1.0" standalone="no"?>
<!DOCTYPE svg PUBLIC "-//W3C//DTD SVG 20010904//EN"
 "http://www.w3.org/TR/2001/REC-SVG-20010904/DTD/svg10.dtd">
<svg version="1.0" xmlns="http://www.w3.org/2000/svg"
 width="2650.000000pt" height="1725.000000pt" viewBox="0 0 2650.000000 1725.000000"
 preserveAspectRatio="xMidYMid meet">

<g transform="translate(0.000000,1725.000000) scale(0.100000,-0.100000)"
fill="#000000" stroke="none">
<path d="M10810 17239 c-1472 -76 -2866 -584 -4030 -1467 -1605 -1219 -2633
-3049 -2834 -5047 -20 -197 -36 -454 -36 -586 l0 -106 -127 -33 c-1734 -444
-3145 -1850 -3607 -3590 -119 -448 -170 -845 -170 -1320 0 -304 10 -450 50
-730 254 -1787 1462 -3318 3149 -3990 354 -141 782 -255 1152 -306 117 -16
123 -18 123 -41 l0 -23 8659 0 c7259 0 8660 2 8664 13 4 10 35 16 99 21 319
24 751 112 1093 223 623 202 1188 514 1705 943 154 128 493 465 622 620 628
755 1012 1624 1150 2603 30 216 38 968 13 1205 -106 1004 -499 1929 -1155
2722 -122 148 -474 502 -615 619 -227 188 -459 353 -695 494 -219 131 -648
333 -872 410 -15 5 -15 11 2 79 81 317 113 829 75 1194 -121 1150 -766 2155
-1765 2751 -420 251 -906 414 -1425 479 -173 22 -624 25 -790 6 -644 -75
-1227 -295 -1721 -648 -49 -35 -91 -64 -94 -64 -3 0 -30 42 -60 93 -86 145
-267 411 -393 579 -1183 1574 -2947 2602 -4887 2847 -387 49 -912 70 -1280 50z
m7012 -5620 c150 -32 269 -136 330 -288 l23 -56 5 -1008 5 -1008 555 526 c617
586 659 623 745 666 254 125 531 -16 577 -294 20 -123 -23 -247 -129 -369 -32
-37 -217 -202 -410 -368 -194 -166 -353 -305 -353 -309 0 -4 193 -268 430
-587 236 -318 443 -606 460 -639 43 -85 57 -167 41 -252 -25 -135 -103 -237
-229 -296 -64 -31 -72 -32 -192 -32 -121 0 -128 1 -190 32 -36 18 -86 54 -112
80 -26 26 -225 293 -443 593 -218 300 -401 545 -407 545 -7 0 -87 -67 -179
-150 l-167 -150 -1 -270 c-1 -297 -10 -370 -57 -455 -38 -71 -130 -155 -211
-193 -64 -30 -74 -32 -183 -32 -109 0 -119 2 -183 32 -93 44 -169 119 -215
212 l-37 75 -3 1815 c-2 1643 -1 1820 14 1870 64 221 292 357 516 310z
m-10311 -211 c134 -66 225 -190 248 -338 7 -40 11 -301 11 -667 l0 -603 825 0
825 0 0 640 c0 619 1 642 21 702 61 187 229 308 428 308 206 0 370 -121 431
-317 20 -64 20 -91 20 -1758 0 -1667 0 -1694 -20 -1758 -61 -196 -225 -317
-431 -317 -199 0 -367 121 -428 308 -20 60 -21 83 -21 712 l0 650 -825 0 -825
0 0 -612 c0 -364 -4 -639 -10 -678 -23 -147 -122 -279 -257 -343 -65 -30 -74
-32 -189 -32 -119 0 -121 0 -196 38 -130 64 -222 183 -247 321 -15 84 -15
3338 0 3422 29 158 144 290 304 347 39 13 74 17 156 15 99 -3 110 -6 180 -40z
m8533 -917 c270 -48 534 -171 707 -329 214 -196 164 -532 -99 -658 -47 -23
-74 -28 -152 -32 -122 -4 -177 14 -302 101 -179 124 -292 165 -479 174 -90 4
-134 2 -195 -12 -275 -61 -478 -260 -571 -562 -25 -82 -27 -101 -27 -278 -1
-169 1 -199 22 -270 111 -386 414 -611 797 -591 61 3 139 12 175 21 86 21 246
100 341 169 107 78 164 99 269 100 75 0 93 -3 150 -30 79 -37 150 -107 188
-183 24 -50 27 -67 27 -161 0 -95 -3 -111 -28 -162 -67 -136 -317 -322 -562
-417 -319 -124 -749 -144 -1095 -50 -430 117 -801 420 -1000 817 -116 232
-171 469 -171 742 -1 356 85 651 269 926 260 388 653 631 1128 699 143 21 453
13 608 -14z m-3449 -16 c204 -31 384 -91 531 -178 119 -70 280 -229 346 -343
91 -155 146 -329 173 -542 14 -109 15 -246 13 -962 l-3 -835 -32 -68 c-42 -89
-121 -168 -210 -210 -92 -43 -226 -50 -331 -18 -86 26 -177 90 -220 157 -32
47 -62 129 -62 167 0 14 -18 2 -72 -48 -171 -159 -374 -260 -598 -299 -443
-77 -864 37 -1109 300 -171 183 -251 416 -238 694 14 274 98 473 270 636 222
212 545 314 990 314 254 0 440 -26 661 -92 54 -16 101 -27 103 -24 10 10 -18
209 -37 262 -43 123 -125 214 -243 269 -120 57 -173 67 -372 72 -211 6 -358
-10 -541 -58 -177 -46 -204 -50 -259 -43 -127 16 -239 94 -292 201 -39 80 -44
203 -13 286 29 77 92 153 157 189 148 83 498 166 795 188 162 12 468 4 593
-15z m-3704 -4140 c16 -9 39 -30 49 -48 19 -30 20 -53 20 -446 0 -406 0 -414
-22 -452 -14 -25 -37 -46 -64 -59 -41 -20 -56 -21 -600 -18 l-559 3 -33 23
c-68 49 -67 42 -67 497 0 379 1 413 18 438 41 64 123 84 184 47 62 -37 63 -46
63 -395 l0 -315 135 0 135 0 0 270 c0 294 2 307 56 349 32 26 101 28 145 5 18
-9 38 -32 50 -57 17 -38 19 -68 19 -304 l0 -263 135 0 135 0 0 313 c0 277 2
316 18 347 35 70 117 99 183 65z m4588 -351 c51 -21 98 -60 129 -107 24 -36
28 -53 35 -171 5 -72 10 -641 13 -1264 l5 -1133 -27 -60 c-50 -110 -147 -173
-269 -173 -126 0 -237 75 -281 189 -18 48 -19 92 -19 1275 0 1181 1 1227 19
1274 34 89 119 162 213 186 46 11 136 3 182 -16z m8993 -6 c60 -26 129 -99
154 -163 18 -48 19 -92 19 -1275 0 -1183 -1 -1227 -19 -1275 -74 -192 -323
-252 -480 -115 -49 44 -88 121 -95 192 l-6 58 -59 -68 c-108 -122 -244 -210
-386 -249 -51 -14 -99 -18 -225 -17 -149 1 -167 4 -257 32 -186 59 -343 167
-462 317 -90 114 -148 236 -192 402 -80 308 -49 645 85 911 149 297 403 477
731 517 279 34 494 -40 698 -239 l72 -70 0 419 c0 419 0 420 24 470 74 160
237 222 398 153z m-11008 -97 c125 -26 146 -33 279 -88 116 -48 260 -132 318
-187 20 -19 49 -60 64 -91 24 -51 27 -68 23 -134 -4 -85 -27 -142 -81 -198
l-31 -33 -180 0 -181 0 -60 40 c-82 56 -194 107 -290 132 -64 17 -108 21 -220
21 -127 0 -148 -3 -230 -30 -213 -69 -371 -207 -472 -408 -182 -363 -102 -838
186 -1096 201 -180 491 -241 775 -163 106 30 182 67 279 136 122 87 169 108
246 108 237 0 369 -277 217 -457 -43 -51 -235 -188 -331 -236 -98 -49 -204
-87 -319 -112 -61 -14 -118 -16 -318 -13 l-243 4 -185 53 c-102 28 -194 58
-205 65 -11 7 -46 23 -79 35 -149 55 -242 118 -361 242 -127 133 -208 253
-276 411 -84 193 -120 369 -120 592 0 265 51 475 166 693 210 397 571 650
1040 729 121 20 460 11 589 -15z m4411 -641 c180 -23 395 -117 546 -239 202
-164 348 -410 390 -658 15 -88 15 -289 0 -378 -55 -329 -285 -632 -597 -788
-178 -89 -338 -127 -538 -127 -205 0 -359 36 -540 127 -300 150 -515 426 -580
743 -52 258 -18 504 102 733 111 212 280 375 498 479 231 112 440 143 719 108z
m2187 -27 c58 -26 124 -92 152 -152 20 -45 21 -61 27 -601 3 -338 10 -569 16
-592 50 -174 165 -261 348 -261 187 0 307 91 358 270 6 24 13 246 16 588 6
535 7 551 27 596 66 143 234 213 378 159 79 -30 146 -97 175 -173 21 -57 21
-64 21 -892 0 -827 0 -835 -21 -891 -51 -136 -201 -217 -341 -184 -132 31
-238 158 -238 285 0 28 -2 27 -64 -41 -126 -138 -251 -217 -398 -250 -94 -22
-293 -14 -388 14 -239 71 -391 235 -462 500 -20 73 -21 110 -25 737 l-4 661
22 59 c59 159 244 237 401 168z m-9172 -256 c103 -54 107 -196 8 -257 -30 -18
-51 -20 -255 -20 l-223 0 0 -270 0 -270 213 0 c201 0 215 -1 257 -22 103 -54
108 -197 8 -258 -32 -19 -52 -20 -612 -20 -576 0 -579 0 -614 22 -46 28 -76
95 -67 149 9 52 56 106 103 119 20 5 128 10 240 10 l202 0 0 270 0 270 -221 0
c-210 0 -224 1 -257 22 -46 28 -76 95 -67 149 9 49 55 106 99 118 17 5 281 10
587 10 l556 1 43 -23z m-1063 -1372 c55 -36 63 -66 63 -237 l0 -158 478 0
c476 0 478 0 522 -22 103 -54 108 -197 8 -258 -32 -19 -52 -20 -520 -20 l-488
0 0 -156 c0 -176 -9 -209 -65 -244 -62 -38 -150 -17 -192 47 -17 25 -18 61
-18 498 0 452 1 471 20 504 38 64 130 86 192 46z m9513 -1225 c0 -5 -8 -10
-17 -10 -15 0 -16 2 -3 10 19 12 20 12 20 0z"/>
<path d="M12105 8700 c-300 -41 -457 -186 -459 -425 0 -78 4 -98 28 -152 73
-161 247 -241 496 -230 203 10 367 69 479 173 120 110 160 205 168 396 l6 127
-46 20 c-175 75 -480 116 -672 91z"/>
<path d="M21480 4740 c-208 -25 -376 -178 -436 -401 -12 -45 -17 -101 -17
-189 0 -107 4 -137 26 -205 74 -228 263 -375 482 -375 230 0 418 148 491 385
14 46 19 92 19 200 0 108 -5 154 -19 200 -79 258 -299 413 -546 385z"/>
<path d="M15610 4733 c-57 -5 -158 -37 -217 -71 -110 -61 -204 -191 -244 -334
-26 -95 -27 -248 -1 -338 56 -192 187 -335 363 -396 77 -27 272 -27 349 0 90
31 157 74 219 142 248 271 183 741 -128 927 -86 51 -224 80 -341 70z"/>
</g>
</svg>
